<svg xmlns="http://www.w3.org/2000/svg" xmlns:xlink="http://www.w3.org/1999/xlink" viewBox="0 0 600 900">
  <defs>
    <style>
      .cls-1, .cls-5 {
        fill: transparent;
      }

      .cls-2, .cls-4 {
        isolation: isolate;
      }

      .cls-3 {
        clip-path: url(#clip-path);
      }

      .cls-4 {
        opacity: 0.2;
      }

      .cls-5 {
        fill-rule: evenodd;
      }
    </style>
    <clipPath id="clip-path">
      <path class="cls-1" d="M531,633c-8.44-4.53-19.27-11.35-31-15-1.07,5.34-.1,23.18,0,30,.05.07,5.14-1,7,1,4.39,4.61,3.85,14.32,7,21,2.55,5.41,3,13.76,1,18-.3.63.82,7,0,9-1.58,3.84-3.72,3.27-4,4-.41,1.08-.83,5.75-1,6-.65.93-5.66,3.58-6,4s.43,3.36-2,6c-2,2.18-6.82,2.36-7,3s.41,5.62-2,7c-4,2.26-9.79,1.7-10,2-2.24,3.22-4.3,6.81-6,8-4.86,1.8-10.2,1-13,1,0,1.53-1.72,6.35-5,8-4.92,2.42-9.92,1.31-13,1-1.13,1.83-1.25,4.72-6,7-6.19,1.61-12.48,0-14,0-.68.43-2.43,3.94-7,5-7.47,2.06-11.61,0-14,0-2.65.53-3.49,5.07-9,6-5.33,0-10.67-1-16-1-2.65.7-2.85,4.86-12,5-8.42,0-10.8-2.92-13-3s-2.29,6.88-13,7c-9.57-.09-12.37-7-13-7-.24,0-4.36,8-14,8-10.42,0-12.62-7.93-13-8-.57-.1-2.39,7.88-15,8-9.94.1-12.47-8-13-8s-.23,6-12,6c-12.52,0-13.28-7.82-14-8-.55.22-1.49,5.1-14,4-9.83-.15-10.89-7.85-11-8-.3-.41-1.92,4-14,3-7.42-.62-7.44-2.25-9-5-.95,0-4.11,1.54-14,0-4.63-1.31-6.89-5.67-8-6-1.74-.52-2.09,1.4-12,0-3.34-.47-8.66-4.69-9-7-2.67-.67-4.08,1-12-.78-4.62-2.28-4.93-7.23-5-7.22-16.7,1.73-13.73-8-14-8-13.35.21-14.83-10-15-10a9.43,9.43,0,0,1-8-7,12.73,12.73,0,0,1-7-10,19.89,19.89,0,0,1-5-17c-3.08-17.92,8.92-32.69,9-33,1.44-5.5,3-8.53,6-12a77.73,77.73,0,0,1-1-14c-.68-5.16-1.09-11.1-1-11-2,0-12.25,4.12-16,6-8.23,4.84-14,7.66-23,14-6.66,4.68-27.14,21.24-32.79,33.72C28.85,676.12,25,684.93,26,699c.73,10.3,1.81,20.6,6,29,1.73,3.48,7.61,14,12,18,18.9,17.44,25.19,21.45,49,34,75,39.54,268.28,56.32,365,20,8.11-3,24.28-7.55,36-12,32.5-12.33,75.19-33.94,82-70C584.92,670.76,556.47,646.66,531,633Z"/>
    </clipPath>
  </defs>
  <g id="plate" class="cls-2" >
    <g class="cls-3">
      <!-- <image id="Lag_6_Billede" data-name="Lag 6 Billede" width="600" height="900" xlink:href="cake1.png"/> -->
    </g>
  </g>
  <g id="bottom_layer" class="cls-4">
    <path class="cls-5" d="M136,474s-1.74,1-3,6c-.08.31-4.54-.09-6,7,0,.12-7.71,4.42-4,13,0,.06-4.51,5,2,13,.16.2-.41,6.45,6,9,.27.11,2.85,5.76,9,5,.74-.09-.59,5.72,12,6,.49,0,1.45,9.58,16,7,1.37,6.11,11.25,6.4,19,5,1.48,4.56,11.21,5.19,22,4,4.89,4.94,14.3,4.88,23,3,5.12,3.6,17.73,4.18,25,2,.28-.08,2.47,6.71,26,3,.6-.1,19,3.64,27-1,.16-.1,12.25,3.92,25-1,.07,0,16.34,2,24-3,.21-.14,16.85,4.71,25-4,.29-.31,12.89,3,22-4,3.33,0,15.62,2.26,18-5,1-.3,16.63,1.49,18-5,4.41-.49,14.44.08,14-7,2.11-.12,8.33.21,9-7,0-.24,10.6,1,9-7,1.93-1.59,4.4-1,4-6-.21-2.61.28-4.4,0-8-.38-5-2.64-8.49-3-11-.8-5.6-6.3-8.51-6.32-8.62-.59-5.27-4.52-8.68-3.68-9.38,1.76.62,18.46,8.6,27.39,14.6,4.84,4.77,10.31,7.64,11.61,14.4.37,5.73,0,22.33,0,30a72.13,72.13,0,0,1-2,17v16c0,14.6.78,32.5-2,44v56c1.22,5.09,3.8,15.54,1,22-4.88,11.27-16.94,24.66-27,31-3.15,2-7,1.91-10,4l-6,7H448l-7,7-9-1c-3.9,1-6.79,5.77-10,7-5.14,2-8.23-2.3-13,0-2.13,1-4.81,5.17-7,6l-16-1c-2.58.87-5.37,5.44-8,6-4.16.88-9.77-4.09-16-2-3.64,1.22-5.22,6.8-12,5-2.88-.76-6.71-4.42-12-3-5,1.33-6.44,5.84-12,7-7.44-10.09-17.18-1.28-26,0-3.26-4.37-8.33-6.94-16-7-2.17,2.46-7.35,6.21-10,5-3.36-1.14-5.24-4.09-8-5-7.52-2.5-12.29,2.39-18,3-2.87-3.85-7.68-6.58-14-7-2.63,2.28-5,2.94-10,3-2.68-3.33-8.91-8.51-16-7-1.13.24-4.21,2.39-6,2-2-.43-4.35-4.07-6-5l-10-1c-3.78-1.36-6.28-6.47-10-8l-8-1c-3.52-1.36-6.62-5.72-10-7-3-1.13-5.69.36-8-1-13.41-7.86-34.21-19.94-40-35-3.47-9,.47-20.85-2-32-5-22.61-5.42-63.31-3-84,.24-2.06-1.6-8.22-2-10-.09-.39-.13-52.31,1-57,1-4.28,4.14-8.16,6-11C113.73,486.32,126.42,474.21,136,474Z"/>
  </g>
  <g id="middle_layer" class="cls-4">
    <path class="cls-5" d="M441,305c2.27-5.45-.93-13.19,0-14a55.29,55.29,0,0,1,13,5c3.92,2.05,6.85,5.92,10,9,.05,49.53-2,94-2,143,0,17.43.77,34.32-1,46-.6,4-.85,2.26-2,6-.07.22-3.28,3.28-4,6-.08.31-8.65,1.06-8,7,0,.24-8.88-1.94-12,6-.19.47-10.11-3.37-16,7-2.33-3.8-13.72-5.61-17,5-9.41-6.9-19.59-.58-21,5-4-4.32-18.41-8-23,4-8.3-7.68-19.3-6.76-24,2-3.17-6.21-18.68-10.24-24,2-.43.12-4.23-8-15-8-10.29,0-11.73,7-12,7s-.59-6.46-13-7c-8.87.47-12.81,5.79-13,6-5-11.27-18.17-9.25-24-4-.18.16-4.46-12.79-21-4-.14.07-6.49-10.58-19-6-.46.17-7.76-6.42-16-3-.21.09-5-8.16-13-7-2.9-3.69-6.71-6.08-12-5-.58-1.37-3.27-5.66-6-6-1.54-4-3.27-5.27-6-6-1.76-16.84-2.05-49-3-65,0-26.71-.95-50-1-78,0-9.21-5.61-44.5-1-52,3-8.47,21-12.67,29-16a15.31,15.31,0,0,1-1,5c-3,5-1.69,13.18,5,15,.35,7.84,8.76,8.08,9,8,5.84,4.71,18.11,4,18,4,8.14,5.09,20.3,3.83,20.46,3.76,3.11,3.67,21.23,3,21.54,3.24,5.67,4.2,24.87,1.94,25,2,8.08,3.79,26,1.31,26,1,12.52,3.49,25,.06,25,0,10.22,3.34,28.92.11,29,0,12.57,1.76,24-1.63,24-2,21.52,0,23.35-2.73,24-3,18.75.83,18.27-3.87,18-4,15.69,1,16-4,16-4,4-.17,5.23-.38,8-1.6a5.66,5.66,0,0,0,3-3.4C439.88,312.59,441.24,312.86,441,305Z"/>
  </g>
  <g id="top_layer" class="cls-4">
    <path class="cls-5" d="M226,76c68.85-.45,158.14-4.67,202,9,1.28,2.07,2.08,2.3,3,5,1.05,2.28.08,8.47,0,14,0,13.67-1,27.33-1,41,0,11.95-.43,25.22-1,35-.53,14.08-1,25.33-1,38,0,27,.78,51.79-2,75-2.39,1.57-3.31,4.59-4,5-1,.6-2.65-1-7,4-.44.51-8-2-11,5-.17.41-4-2.42-10-1a9.47,9.47,0,0,0-7,6c-7.85-3.52-4.43-3.31-11-3-6.83,0-10.87,8.4-12,7-3.25-4-5.52-5.14-11-5-10.89.28-11.88,6.92-13,7-.78.05-3.07-6.17-12-6-10.76.21-13.42,6-14,6-.77,0-5.55-6.07-12-6-11.09.12-13.2,7-14,7s-2.81-7.11-12-7c-9,.11-12.36,5.86-13,6-.82.18-.23-6.65-11-7-7.84,0-11.2,3-12,3-1.56-.48-2.57-5.37-8-6-8.36-1-11.44,1.92-12,2-.78-.46-4.16-6.54-20-4-1.31-4.24-5.41-5.83-13-7-2.65-.41-2.08-2.31-4-4-1.71-1.51-3.4-3.43-5-5-.11-30.62-2-55.27-2-86,0-16.66-.58-27.52-1-50-.21-6.65-1-10.17-1-17,0-12.92-3.37-50.19,1-53C185.41,76.77,213.51,76.55,226,76Z"/>
  </g>
  <g id="border" class="cls-4">
    <path class="cls-5" d="M223,759c-.13,0-1,6.48-16,4-5.62-.74-7-5-7-5s-7.55,1.25-13,0c-5.17-1.18-8.94-6.08-9-6s-8.16,1.6-12.75,0c-4.85-1.66-9.09-7.09-9.25-7a27.9,27.9,0,0,1-11-1c-3.89-1.17-5.61-7-6-7s-7.12.92-10-1-3.83-7-4-7a16.71,16.71,0,0,1-10-3c-1.89-1.22-3.83-6.91-4-7a11.75,11.75,0,0,1-5-2c-2-1.6-2.89-4.52-3.12-4.7S96.79,708.59,96,703a21.19,21.19,0,0,1-3-6c-.06-.27-3.52-5.52-2-11,0-.1-2.31-7.39,0-12,.28-.55-.18-7.91,3-11a68.07,68.07,0,0,1,6-11c1.18-3.91,3.51-9.38,6-12,.45,7.49,2.34,8,3,16-3.15,36.44,7.55,40,16,48a72.89,72.89,0,0,0,12,9c.21.09,2.28,1.41,5,3,3.37,2,8.63,4.87,9,5s4.68-.39,7,1c2.41.84,8.82,6,9,6,.53.25,8.79.84,10,2,3.29,3.15,8.85,8.1,9,8-.09.06,5.7-.67,10,1,3.38,1.31,6.91,5,7,5,.42.11,4.45-3,10-2,6.42.44,9.64,6.32,12,7,3.19-.09,7.15-3.81,13-3,5.91,1.8,10.52,7,11,7s8.45-4.13,13-4c7.31.2,10,5.8,13,6,4.36.29,6.5-6.75,14-5,6.6,1.54,11.87,7.06,12,7a33.1,33.1,0,0,1,14.75-5A12.35,12.35,0,0,1,327,757c1.37-.06,8-7.68,13-8,5.37-.34,9.93,4.38,13,4,2.34,0,7.66-6,12-6,3.84,0,10.76,3,13,3,.55,0,3.12-3.56,8-6,2.59-.2,16.51.15,17,0s3.14-4.73,8-6c2.14-.56,9.37,1.56,11,1,.61-.21,5.69-6.11,9-7,2.4-.64,9.85.23,10,0,.36.14,4.29-3.44,7-6,4.1-1.36,9.69.19,10,0,.63-.38,2.82-4.89,7-8,1.92-1.43,8.91-2.94,9-3,11.72-8.52,18.05-16.92,18-17,1.54-3.64,5.89-8.49,6-9,.76-3.37,4-6.91,4-7a25.88,25.88,0,0,0,0-9c-1.37-5.37-1.95-11-2-19-.09,0,0-5.93,0-6,.18-.31,3.29-1.19,8,2,2,3.23,5.22,15.57,8.11,27,.86,3.4-1.1,13.58-1.11,14a13.61,13.61,0,0,1,0,6c-1.22,4.08-4,3.93-4,4-.11.33.05,4.49-1,6s-5.71,3.85-6,4,.66,4-2,6a16.44,16.44,0,0,1-7,3c-.06,0,.77,4.4-2,7-3.51,2.66-9.82,1.87-10,2a15,15,0,0,1-7.17,8.16c-4.77,1.16-11.45.58-11.83.84-.27,0,.21,5.47-5,8-4.95,2.41-12.86,1-13,1a10.79,10.79,0,0,1-7,7c-4.43,1.49-11.44-.16-13,0a15.09,15.09,0,0,1-9,6c-5.6.93-9.67-.67-13-1-.23.33-4.27,5.34-8,6a85,85,0,0,1-16-1c-.49.29-4,3.86-9,5-7,.7-17.17-3.07-17-3-.31.21-1.4,6.87-12,7-10.31.13-12.45-7.21-13-7s-4.22,8.06-14,8c-11.84-.07-12.56-7.93-13-8-.17,0-2.48,8.11-15,8-10.5-.09-12.62-8.1-13-8s.42,6.23-14,6c-10.33-.16-11.91-8-12-8-.25-.07-2.48,5.92-18,4C224.75,765.22,223.49,763.5,223,759Z"/>
    <path class="cls-5" d="M138,472c.52,9.84,1.31,28.81,2,29,4.53,1.27,11.61,11.14,12,12,.19.42,3.17-1.44,8,1,2.13,1.08,3.62,3.89,4,4s3.84-.32,7,1c2.27,1,5.65,6,6,6s2.77-1.52,8.51-.83c3.23.39,6.68,3.87,7.49,3.83.45.15,5-2.46,12,0,4.67,1.64,6.73,6,7,6s5.37-4.53,13-3c7,2.25,7.72,7,8,7s4.3-5.16,13-4c9,1.2,10.85,8,11,8s4.15-6.18,14-6c10.46.19,11.63,7,12,7s1.33-7.44,13-7c9.31-.23,13.57,8,14,8a12.41,12.41,0,0,1,12-8c8.86.13,11.84,6,12,6a12.49,12.49,0,0,1,12-7c8.41.24,11.81,5,12,5s2.35-7.83,11-8c9.5-.19,10.86,4,11,4s5.72-7.74,10-8c9.89-.6,11.47,3.38,12,3,.19,0,.24-6.16,8-8,4.52-1.07,8.8,2.14,9,2s3.38-4,7-6c4-1.17,8.64-.06,9,0a10.38,10.38,0,0,1,4-5c2.12-1.29,7.6-.81,8-1s-.17-3,2-5c.68-.63,4.94-2,6-3,2.16-2.09,4.26-5.81,5-7,2.72-4.37,1.7-28.8,2-29,5.93,1.43,5.76,7.78,6,8a32.69,32.69,0,0,1,10,19c1,6-1.12,8.72,0,14-1.56,1.61-3.88,2.65-4,3-.51,1.5.92,4.66-1,6s-7.49.77-8,1,1.08,2.64-3,6c-1.55,1.28-5.46.59-6,1-.28.21,1.59,4.23-4,6a27.22,27.22,0,0,1-10,1c-.08,0-.95,3.6-6,5-3.54,1-11.57-.09-12,0s-2,4.66-6,5a38.11,38.11,0,0,1-10-.38c-.33,0-6.57,3.62-10,4.38-3.31.73-13.86.36-14.31.36S379,552.74,374,553a66.54,66.54,0,0,1-14.66-1c-.37,0-5.21,2.44-10.34,3a127.66,127.66,0,0,1-14,0c-.06,0-4.23,1.77-12,2a59.49,59.49,0,0,1-12-1,39.84,39.84,0,0,1-13,2,118.43,118.43,0,0,1-13-1,75.07,75.07,0,0,1-16,1c-8.77-.28-11.69-3.73-12.15-3.79A89.33,89.33,0,0,1,241,555a34.74,34.74,0,0,1-9-2,117.38,117.38,0,0,1-15,0c-3.95-.33-7.69-3.92-8-4-.54-.14-5.64,1.24-11,1-6-.27-10.72-3.9-11-4s-6.87.79-11,0c-7.17-1.37-7.65-5.8-8-6s-6.87,1.55-10,0c-3.79-1.88-5.88-6.94-6-7a13.79,13.79,0,0,1-7-1c-4.08-1.63-4.73-4.94-5-5s-3.59.77-9-4c-6.34-5.59-4.68-7.7-6-9-6.37-9-2-13.53-2-14s-4-8.5,4-13c1.15-5.2,3.6-5.89,5-7C132.92,477.49,137,472,138,472Z"/>
    <path class="cls-5" d="M427,280c2.33.2,6.83,4.19,8,5,6.48,5.14,6.42,6.95,6.88,12.06-.42,7.74.46,16.77-6.88,16.94.14,0-1,5.4-10,5-3.71,5.43-13,4-17,4-1,2.48-1.93,5.23-18,4-.17,0-3.36,3.45-25,3-.46,0-2.8,2.25-11,3-4.05.37-13.76,0-14,0a106.34,106.34,0,0,1-12,1,50.51,50.51,0,0,1-15-2c-.51.05-7.39,1.94-12,2-4.9.07-13.54-1.95-14-2s-.75,1.17-12,1a47,47,0,0,1-13-2c-22.38,1.16-24.7-2-25-2-18.86,1.35-21.12-3.52-21.45-3.49-17,1.38-20.48-3.51-20.55-3.51-17,0-17.81-4-18-4-5.32-.73-8.66-3.07-9-8-7.37-1.19-7.37-10.93-5-16,.78-1.67.38-3.3,1-4,2.14-2.5,2.75-6.11,14-8,.08,3.32.72,9,1,9,.85,0,5.37,5.46,8,8,.28.27,4.86.33,10,3,3.77,2,2.51,3.85,3,4,.7.21,6.23-1.69,11.32-.54,6.9,1.56,7.94,4.45,8.68,4.54.5.06,3.05-2.58,11-2s7.44,5.89,9,6c1.08.08,4.08-3.78,13-3,7.95.69,9.5,6.06,10,6s5.12-5,13-5c8.68.05,11,6.1,12,6,2.84-.28,2.12-6.19,14-6,6.82.11,11.62,6,12,6,.54,0,4-6,14-6,9.15,0,11.63,6,12,6,.81,0,2.1-6.33,12-7,10.07-.68,11.77,5,12,5,2.14-.09,4.69-6.91,13-7a15.47,15.47,0,0,1,10,3c.06,0,1.73-6.66,10-7,3.47-.14,4.51.74,6,2,0,0,5-5.06,6-5,8.16.49,9.42-4,10-4,3.49-.08,6.81-5.44,6.85-5.51C426.68,290.8,426.42,284.29,427,280Z"/>
  </g>
  <g id="Shadow">
    <image id="Lag_9_Billede" data-name="Lag 9 Billede" width="600" height="900" xlink:href="cake2.png"/>
  </g>
</svg>
